<?xml version="1.0" encoding="UTF-8"?>
<svg width="914px" height="272px" viewBox="0 0 914 272" version="1.1" xmlns="http://www.w3.org/2000/svg" xmlns:xlink="http://www.w3.org/1999/xlink">
    <!-- Generator: Sketch 51.2 (57519) - http://www.bohemiancoding.com/sketch -->
    <title>3d buildings logo </title>
    <desc>Created with Sketch.</desc>
    <defs></defs>
    <g id="3d-buildings-logo-" stroke="none" stroke-width="1" fill="none" fill-rule="evenodd">
        <path d="M269.254,185.9755 L269.254,196 L219.2545,196 L219.2545,107.8705 L231.124,107.8705 L231.124,185.9755 L269.254,185.9755 Z M336.781,186.283 L336.7195,196 L282.415,196 L282.415,107.8705 L336.7195,107.8705 L336.7195,117.5875 L294.346,117.5875 L294.346,146.8615 L328.663,146.8615 L328.663,156.2095 L294.346,156.2095 L294.346,186.283 L336.781,186.283 Z M423.127,153.6265 L423.127,187.4515 C418.698978,190.649516 413.973775,193.037742 408.95125,194.61625 C403.928725,196.194758 398.42453,196.984 392.4385,196.984 C385.345465,196.984 378.949528,195.887261 373.2505,193.69375 C367.551472,191.500239 362.68277,188.42527 358.64425,184.46875 C354.60573,180.51223 351.500011,175.766528 349.327,170.2315 C347.153989,164.696472 346.0675,158.608033 346.0675,151.966 C346.0675,145.241966 347.123239,139.112528 349.23475,133.5775 C351.346261,128.042472 354.349481,123.29677 358.2445,119.34025 C362.139519,115.38373 366.874972,112.319011 372.451,110.146 C378.027028,107.972989 384.258966,106.8865 391.147,106.8865 C394.632017,106.8865 397.870985,107.142747 400.864,107.65525 C403.857015,108.167753 406.624487,108.905745 409.1665,109.86925 C411.708513,110.832755 414.065989,112.001243 416.239,113.37475 C418.412011,114.748257 420.441491,116.295991 422.3275,118.018 L418.945,123.43 C418.411997,124.250004 417.725254,124.772749 416.88475,124.99825 C416.044246,125.223751 415.111505,125.029003 414.0865,124.414 C413.102495,123.839997 411.975006,123.143004 410.704,122.323 C409.432994,121.502996 407.885259,120.713754 406.06075,119.95525 C404.236241,119.196746 402.083762,118.551003 399.60325,118.018 C397.122738,117.484997 394.181017,117.2185 390.778,117.2185 C385.816975,117.2185 381.32752,118.028242 377.3095,119.64775 C373.29148,121.267258 369.868014,123.583735 367.039,126.59725 C364.209986,129.610765 362.037008,133.259729 360.52,137.54425 C359.002992,141.828771 358.2445,146.635973 358.2445,151.966 C358.2445,157.501028 359.033742,162.451728 360.61225,166.81825 C362.190758,171.184772 364.445735,174.895235 367.37725,177.94975 C370.308765,181.004265 373.865479,183.330992 378.0475,184.93 C382.229521,186.529008 386.923974,187.3285 392.131,187.3285 C396.23102,187.3285 399.869734,186.867255 403.04725,185.94475 C406.224766,185.022245 409.330485,183.741008 412.3645,182.101 L412.3645,162.7285 L398.65,162.7285 C397.870996,162.7285 397.245752,162.503002 396.77425,162.052 C396.302748,161.600998 396.067,161.047503 396.067,160.3915 L396.067,153.6265 L423.127,153.6265 Z M487.456,163.282 L473.6185,127.4275 C473.208498,126.361495 472.778002,125.121257 472.327,123.70675 C471.875998,122.292243 471.445502,120.785508 471.0355,119.1865 C470.174496,122.507517 469.293005,125.274989 468.391,127.489 L454.5535,163.282 L487.456,163.282 Z M512.302,196 L503.077,196 C502.010995,196 501.150003,195.733503 500.494,195.2005 C499.837997,194.667497 499.346002,193.991004 499.018,193.171 L490.777,171.892 L451.2325,171.892 L442.9915,193.171 C442.745499,193.909004 442.274003,194.564997 441.577,195.139 C440.879997,195.713003 440.019005,196 438.994,196 L429.769,196 L465.0085,107.8705 L477.0625,107.8705 L512.302,196 Z M573.925,185.9755 L573.925,196 L523.9255,196 L523.9255,107.8705 L535.795,107.8705 L535.795,185.9755 L573.925,185.9755 Z M599.017,196 L587.086,196 L587.086,107.8705 L599.017,107.8705 L599.017,196 Z M683.395,177.796 C684.051003,177.796 684.624998,178.062497 685.117,178.5955 L689.8525,183.7 C686.244482,187.882021 681.867776,191.141488 676.72225,193.4785 C671.576724,195.815512 665.355036,196.984 658.057,196.984 C651.742968,196.984 646.003026,195.887261 640.837,193.69375 C635.670974,191.500239 631.263518,188.42527 627.6145,184.46875 C623.965482,180.51223 621.13651,175.766528 619.1275,170.2315 C617.11849,164.696472 616.114,158.608033 616.114,151.966 C616.114,145.323967 617.15949,139.235528 619.2505,133.7005 C621.34151,128.165472 624.283231,123.40952 628.07575,119.4325 C631.868269,115.45548 636.408974,112.370261 641.698,110.17675 C646.987026,107.983239 652.829468,106.8865 659.2255,106.8865 C665.498531,106.8865 671.033476,107.89099 675.8305,109.9 C680.627524,111.90901 684.850482,114.635483 688.4995,118.0795 L684.5635,123.553 C684.317499,123.963002 683.999752,124.301249 683.61025,124.56775 C683.220748,124.834251 682.698003,124.9675 682.042,124.9675 C681.303996,124.9675 680.402005,124.567754 679.336,123.76825 C678.269995,122.968746 676.876009,122.077005 675.154,121.093 C673.431991,120.108995 671.279513,119.217254 668.6965,118.41775 C666.113487,117.618246 662.936019,117.2185 659.164,117.2185 C654.612977,117.2185 650.451519,118.007742 646.6795,119.58625 C642.907481,121.164758 639.658264,123.450485 636.93175,126.4435 C634.205236,129.436515 632.083508,133.085478 630.5665,137.3905 C629.049492,141.695522 628.291,146.553973 628.291,151.966 C628.291,157.460027 629.080242,162.359478 630.65875,166.6645 C632.237258,170.969522 634.389736,174.608235 637.11625,177.58075 C639.842764,180.553265 643.061231,182.818492 646.77175,184.3765 C650.482269,185.934508 654.489978,186.7135 658.795,186.7135 C661.419013,186.7135 663.786739,186.559752 665.89825,186.25225 C668.009761,185.944748 669.957241,185.463003 671.74075,184.807 C673.524259,184.150997 675.184742,183.320755 676.72225,182.31625 C678.259758,181.311745 679.786992,180.112507 681.304,178.7185 C682.001003,178.103497 682.697997,177.796 683.395,177.796 Z M715.621,196 L703.69,196 L703.69,107.8705 L715.621,107.8705 L715.621,196 Z M797.7235,117.895 L769.1875,117.895 L769.1875,196 L757.318,196 L757.318,117.895 L728.7205,117.895 L728.7205,107.8705 L797.7235,107.8705 L797.7235,117.895 Z M843.8485,160.8835 L843.8485,196 L831.9175,196 L831.9175,160.8835 L799.63,107.8705 L810.085,107.8705 C811.151005,107.8705 811.991497,108.126747 812.6065,108.63925 C813.221503,109.151753 813.754498,109.817996 814.2055,110.638 L834.3775,144.8935 C835.115504,146.328507 835.791997,147.671244 836.407,148.92175 C837.022003,150.172256 837.554998,151.432994 838.006,152.704 C838.457002,151.432994 838.969497,150.172256 839.5435,148.92175 C840.117503,147.671244 840.752997,146.328507 841.45,144.8935 L861.5605,110.638 C861.929502,109.940997 862.441997,109.305503 863.098,108.7315 C863.754003,108.157497 864.594495,107.8705 865.6195,107.8705 L876.136,107.8705 L843.8485,160.8835 Z" id="LEGALICITY" fill="#56BFF7"></path>
        <path d="M34,160.128 L104.431927,216.603809 L175.516002,160.128 L175.516002,199.524191 L104.431927,256 L34,199.524191 L34,160.128 Z M34,154.524475 L34,25.2337043 L65.001288,16 L65.001288,123.274918 L55.0019768,127.35936 L55.0019768,171.362228 L34,154.524475 Z M68.6006856,16 L100.54684,27.783801 L100.54684,44.3314577 L85,50.678894 L85,115.040497 L68.6006856,121.742462 L68.6006856,16 Z M88.5974884,53.9263529 L112.003342,44.3650055 L112.003342,108.970261 L104.660034,107.069839 L88.5974884,113.635208 L88.5974884,53.9263529 Z M115.59726,44.2292328 L156.440304,55.3042847 L156.440304,120.43483 L115.59726,109.899216 L115.59726,44.2292328 Z M58.602478,130.550827 L103.001816,112.409454 L103.001816,209.852493 L58.602478,174.248764 L58.602478,130.550827 Z M106.602231,209.272644 L106.602231,112.107843 L175.516002,129.88844 L175.514236,154.522079 L106.602231,209.272644 Z" id="Combined-Shape-Copy" fill="#56BFF7"></path>
    </g>
</svg>