<?xml version="1.0" encoding="UTF-8"?>
<svg width="210px" height="272px" viewBox="0 0 210 272" version="1.1" xmlns="http://www.w3.org/2000/svg" xmlns:xlink="http://www.w3.org/1999/xlink">
    <!-- Generator: Sketch 51.2 (57519) - http://www.bohemiancoding.com/sketch -->
    <title>3d buildings icon black </title>
    <desc>Created with Sketch.</desc>
    <defs></defs>
    <g id="3d-buildings-icon-black-" stroke="none" stroke-width="1" fill="none" fill-rule="evenodd">
        <path d="M34,163.128 L104.431927,219.603809 L175.516002,163.128 L175.516002,202.524191 L104.431927,259 L34,202.524191 L34,163.128 Z M34,157.524475 L34,28.2337043 L65.001288,19 L65.001288,126.274918 L55.0019768,130.35936 L55.0019768,174.362228 L34,157.524475 Z M68.6006856,19 L100.54684,30.783801 L100.54684,47.3314577 L85,53.678894 L85,118.040497 L68.6006856,124.742462 L68.6006856,19 Z M88.5974884,56.9263529 L112.003342,47.3650055 L112.003342,111.970261 L104.660034,110.069839 L88.5974884,116.635208 L88.5974884,56.9263529 Z M115.59726,47.2292328 L156.440304,58.3042847 L156.440304,123.43483 L115.59726,112.899216 L115.59726,47.2292328 Z M58.602478,133.550827 L103.001816,115.409454 L103.001816,212.852493 L58.602478,177.248764 L58.602478,133.550827 Z M106.602231,212.272644 L106.602231,115.107843 L175.516002,132.88844 L175.514236,157.522079 L106.602231,212.272644 Z" id="Combined-Shape-Copy" fill="#000000"></path>
    </g>
</svg>