<?xml version="1.0" encoding="UTF-8"?>
<svg width="210px" height="272px" viewBox="0 0 210 272" version="1.1" xmlns="http://www.w3.org/2000/svg" xmlns:xlink="http://www.w3.org/1999/xlink">
    <!-- Generator: Sketch 51.2 (57519) - http://www.bohemiancoding.com/sketch -->
    <title>3d buildings icon</title>
    <desc>Created with Sketch.</desc>
    <defs></defs>
    <g id="3d-buildings-icon" stroke="none" stroke-width="1" fill="none" fill-rule="evenodd">
        <path d="M34,160.128 L104.431927,216.603809 L175.516002,160.128 L175.516002,199.524191 L104.431927,256 L34,199.524191 L34,160.128 Z M34,154.524475 L34,25.2337043 L65.001288,16 L65.001288,123.274918 L55.0019768,127.35936 L55.0019768,171.362228 L34,154.524475 Z M68.6006856,16 L100.54684,27.783801 L100.54684,44.3314577 L85,50.678894 L85,115.040497 L68.6006856,121.742462 L68.6006856,16 Z M88.5974884,53.9263529 L112.003342,44.3650055 L112.003342,108.970261 L104.660034,107.069839 L88.5974884,113.635208 L88.5974884,53.9263529 Z M115.59726,44.2292328 L156.440304,55.3042847 L156.440304,120.43483 L115.59726,109.899216 L115.59726,44.2292328 Z M58.602478,130.550827 L103.001816,112.409454 L103.001816,209.852493 L58.602478,174.248764 L58.602478,130.550827 Z M106.602231,209.272644 L106.602231,112.107843 L175.516002,129.88844 L175.514236,154.522079 L106.602231,209.272644 Z" id="Combined-Shape" fill="#56BFF7"></path>
    </g>
</svg>